<svg width="386.458" height="62" viewBox="0 0 386.458 62" xmlns="http://www.w3.org/2000/svg"><path d="M42.125 22.696q2.4 0 3.672-1.08 1.056-.864 1.056-2.256 0-.984-.408-1.584-.48-.672-1.68-1.2-1.2-.552-3.528-1.128-3.096-.768-4.296-2.04-1.008-1.056-1.008-2.784 0-2.064 1.776-3.264 1.632-1.08 4.296-1.08 2.88 0 4.728 1.344 1.608 1.2 1.968 3.144h-1.944q-.288-1.464-1.656-2.232-1.2-.672-3.072-.672-2.232 0-3.312.864-.888.696-.888 1.8 0 1.344 1.032 2.064 1.008.696 3.696 1.368 3.696.936 5.04 2.28 1.152 1.128 1.152 3.048 0 2.28-1.944 3.696-1.8 1.296-4.656 1.296-2.952 0-4.848-1.512-1.656-1.32-2.016-3.48h1.944q.288 1.728 1.752 2.64 1.248.768 3.144.768zm18.336-2.28h1.92q-.504 1.872-2.064 2.928-1.392.936-3.336.936-2.88 0-4.512-1.92-1.488-1.752-1.488-4.68 0-3.36 1.872-5.136 1.56-1.464 3.96-1.464 2.808 0 4.32 1.896 1.416 1.824 1.416 5.112h-9.744q.12 2.472 1.464 3.696 1.104.984 2.784.984 1.344 0 2.304-.72.816-.648 1.104-1.632zm-3.624-7.896q-1.728 0-2.784 1.176-1.008 1.08-1.2 2.952h7.872q-.12-2.136-1.344-3.24-1.008-.888-2.544-.888zm17.04 7.56h1.92q-.288 1.968-1.872 3.144-1.44 1.056-3.432 1.056-2.688 0-4.272-1.896-1.44-1.728-1.44-4.608 0-3.36 1.824-5.184 1.512-1.512 3.888-1.512 2.232 0 3.672 1.2 1.272 1.056 1.56 2.736h-1.968q-.24-1.224-1.2-1.872-.84-.552-2.016-.552-1.872 0-2.904 1.464-.984 1.368-.984 3.792 0 2.568 1.296 3.888 1.008 1.032 2.592 1.032 1.416 0 2.328-.816.816-.72 1.008-1.872zm4.632-.336V11.44h1.776v8.304q0 1.608.888 2.376.744.648 2.04.648 1.68 0 2.616-1.224.792-1.008.792-2.472V11.44h1.8v12.48h-1.488l-.192-1.728q-.624 1.008-1.656 1.548t-2.28.54q-2.088 0-3.24-1.272-1.056-1.2-1.056-3.264zm15.216-2.376v6.552H91.95V11.44h1.464l.24 2.136q1.008-2.496 3.336-2.496.648 0 1.32.168v1.776q-.768-.216-1.392-.216-1.464 0-2.352 1.296-.84 1.224-.84 3.264zm15.096 3.048h1.92q-.504 1.872-2.064 2.928-1.392.936-3.336.936-2.88 0-4.512-1.92-1.488-1.752-1.488-4.68 0-3.36 1.872-5.136 1.56-1.464 3.96-1.464 2.808 0 4.32 1.896 1.416 1.824 1.416 5.112h-9.744q.12 2.472 1.464 3.696 1.104.984 2.784.984 1.344 0 2.304-.72.816-.648 1.104-1.632zm-3.624-7.896q-1.728 0-2.784 1.176-1.008 1.08-1.2 2.952h7.872q-.12-2.136-1.344-3.24-1.008-.888-2.544-.888zm23.4-5.88l6.984 17.28h-2.088l-1.8-4.632h-8.496l-1.848 4.632h-1.968l7.008-17.28h2.208zm2.472 11.088l-3.6-9.216-3.672 9.216h7.272zm14.76 2.352h1.92q-.288 1.968-1.872 3.144-1.44 1.056-3.432 1.056-2.688 0-4.272-1.896-1.44-1.728-1.44-4.608 0-3.36 1.824-5.184 1.512-1.512 3.888-1.512 2.232 0 3.672 1.2 1.272 1.056 1.56 2.736h-1.968q-.24-1.224-1.2-1.872-.84-.552-2.016-.552-1.872 0-2.904 1.464-.984 1.368-.984 3.792 0 2.568 1.296 3.888 1.008 1.032 2.592 1.032 1.416 0 2.328-.816.816-.72 1.008-1.872zm13.128 0h1.92q-.288 1.968-1.872 3.144-1.44 1.056-3.432 1.056-2.688 0-4.272-1.896-1.44-1.728-1.44-4.608 0-3.36 1.824-5.184 1.512-1.512 3.888-1.512 2.232 0 3.672 1.2 1.272 1.056 1.56 2.736h-1.968q-.24-1.224-1.2-1.872-.84-.552-2.016-.552-1.872 0-2.904 1.464-.984 1.368-.984 3.792 0 2.568 1.296 3.888 1.008 1.032 2.592 1.032 1.416 0 2.328-.816.816-.72 1.008-1.872zm13.512.336h1.92q-.504 1.872-2.064 2.928-1.392.936-3.336.936-2.88 0-4.512-1.92-1.488-1.752-1.488-4.68 0-3.36 1.872-5.136 1.56-1.464 3.96-1.464 2.808 0 4.32 1.896 1.416 1.824 1.416 5.112h-9.744q.12 2.472 1.464 3.696 1.104.984 2.784.984 1.344 0 2.304-.72.816-.648 1.104-1.632zm-3.624-7.896q-1.728 0-2.784 1.176-1.008 1.08-1.2 2.952h7.872q-.12-2.136-1.344-3.24-1.008-.888-2.544-.888zm16.104 8.064q0-1.032-.816-1.572t-3.048-.972q-2.208-.456-3.192-1.368-.888-.84-.888-2.16 0-1.656 1.344-2.592 1.248-.84 3.36-.84 2.16 0 3.528 1.08 1.2.936 1.464 2.472h-1.824q-.192-1.032-1.128-1.608-.84-.528-2.088-.528-1.488 0-2.232.624-.6.48-.6 1.224 0 .912.684 1.392.684.48 2.508.84 2.616.528 3.672 1.416 1.08.888 1.08 2.472 0 1.776-1.512 2.832-1.344.984-3.528.984-2.4 0-3.816-1.176-1.2-1.008-1.368-2.616h1.824q.36 2.352 3.384 2.352 1.608 0 2.472-.744.72-.624.72-1.512zm11.928 0q0-1.032-.816-1.572t-3.048-.972q-2.208-.456-3.192-1.368-.888-.84-.888-2.16 0-1.656 1.344-2.592 1.248-.84 3.36-.84 2.16 0 3.528 1.08 1.2.936 1.464 2.472h-1.824q-.192-1.032-1.128-1.608-.84-.528-2.088-.528-1.488 0-2.232.624-.6.48-.6 1.224 0 .912.684 1.392.684.48 2.508.84 2.616.528 3.672 1.416 1.08.888 1.08 2.472 0 1.776-1.512 2.832-1.344.984-3.528.984-2.4 0-3.816-1.176-1.2-1.008-1.368-2.616h1.824q.36 2.352 3.384 2.352 1.608 0 2.472-.744.72-.624.72-1.512zm17.856 2.112q2.4 0 3.672-1.08 1.056-.864 1.056-2.256 0-.984-.408-1.584-.48-.672-1.68-1.2-1.2-.552-3.528-1.128-3.096-.768-4.296-2.04-1.008-1.056-1.008-2.784 0-2.064 1.776-3.264 1.632-1.08 4.296-1.08 2.88 0 4.728 1.344 1.608 1.2 1.968 3.144h-1.944q-.288-1.464-1.656-2.232-1.2-.672-3.072-.672-2.232 0-3.312.864-.888.696-.888 1.8 0 1.344 1.032 2.064 1.008.696 3.696 1.368 3.696.936 5.04 2.28 1.152 1.128 1.152 3.048 0 2.28-1.944 3.696-1.8 1.296-4.656 1.296-2.952 0-4.848-1.512-1.656-1.32-2.016-3.48h1.944q.288 1.728 1.752 2.64 1.248.768 3.144.768zm18.336-2.28h1.92q-.504 1.872-2.064 2.928-1.392.936-3.336.936-2.88 0-4.512-1.92-1.488-1.752-1.488-4.68 0-3.36 1.872-5.136 1.56-1.464 3.96-1.464 2.808 0 4.32 1.896 1.416 1.824 1.416 5.112h-9.744q.12 2.472 1.464 3.696 1.104.984 2.784.984 1.344 0 2.304-.72.816-.648 1.104-1.632zm-3.624-7.896q-1.728 0-2.784 1.176-1.008 1.08-1.2 2.952h7.872q-.12-2.136-1.344-3.24-1.008-.888-2.544-.888zm10.44 4.848v6.552h-1.776V11.44h1.464l.24 2.136q1.008-2.496 3.336-2.496.648 0 1.32.168v1.776q-.768-.216-1.392-.216-1.464 0-2.352 1.296-.84 1.224-.84 3.264zm10.896 5.088l3.84-11.016h1.872l-4.56 12.48h-2.4l-4.512-12.48h1.944l3.816 11.016zm9.528-11.016v12.48h-1.8V11.44h1.8zm.12-4.8v2.232h-2.04V6.64h2.04zm11.736 13.44h1.92q-.288 1.968-1.872 3.144-1.44 1.056-3.432 1.056-2.688 0-4.272-1.896-1.44-1.728-1.44-4.608 0-3.36 1.824-5.184 1.512-1.512 3.888-1.512 2.232 0 3.672 1.2 1.272 1.056 1.56 2.736h-1.968q-.24-1.224-1.2-1.872-.84-.552-2.016-.552-1.872 0-2.904 1.464-.984 1.368-.984 3.792 0 2.568 1.296 3.888 1.008 1.032 2.592 1.032 1.416 0 2.328-.816.816-.72 1.008-1.872zm13.512.336h1.92q-.504 1.872-2.064 2.928-1.392.936-3.336.936-2.88 0-4.512-1.92-1.488-1.752-1.488-4.68 0-3.36 1.872-5.136 1.56-1.464 3.96-1.464 2.808 0 4.32 1.896 1.416 1.824 1.416 5.112h-9.744q.12 2.472 1.464 3.696 1.104.984 2.784.984 1.344 0 2.304-.72.816-.648 1.104-1.632zm-3.624-7.896q-1.728 0-2.784 1.176-1.008 1.08-1.2 2.952h7.872q-.12-2.136-1.344-3.24-1.008-.888-2.544-.888zm17.856 1.824h7.92v1.584h-7.92v6.384h8.616v1.608h-10.488V6.64h10.488v1.608h-8.616v6.096zm22.392-7.704v17.28h-1.464l-.312-2.064q-.696 1.2-1.824 1.824-1.08.6-2.448.6-2.544 0-4.032-1.872-1.368-1.752-1.368-4.632 0-3.456 1.776-5.256 1.44-1.44 3.72-1.44 2.808 0 4.152 2.256V6.64h1.8zm-9.6 11.16q0 2.568 1.272 3.888 1.032 1.08 2.64 1.08 1.896 0 3-1.464 1.008-1.344 1.008-3.552 0-2.64-1.248-4.008-1.056-1.152-2.736-1.152-1.92 0-2.952 1.44-.984 1.368-.984 3.768zm12.96 7.128h1.896q.24 1.152 1.248 1.752.864.504 2.208.504 1.896 0 2.904-1.056.84-.936.84-2.448v-2.184q-1.368 2.016-4.248 2.016-2.424 0-3.96-1.8-1.44-1.656-1.44-4.32 0-3.144 1.752-4.848 1.464-1.464 3.744-1.464 2.856 0 4.2 2.28l.288-1.92h1.464v12.312q0 2.28-1.632 3.624-1.488 1.224-3.864 1.224-2.448 0-3.888-1.104-1.2-.96-1.512-2.568zm1.296-7.512q0 2.28 1.296 3.552Q329.31 22 330.893 22q1.92 0 2.976-1.272 1.008-1.2 1.008-3.312 0-2.496-1.272-3.768-1.056-1.056-2.736-1.056-1.872 0-2.928 1.344-.984 1.272-.984 3.48zm21.888 3h1.92q-.504 1.872-2.064 2.928-1.392.936-3.336.936-2.88 0-4.512-1.92-1.488-1.752-1.488-4.68 0-3.36 1.872-5.136 1.56-1.464 3.96-1.464 2.808 0 4.32 1.896 1.416 1.824 1.416 5.112h-9.744q.12 2.472 1.464 3.696 1.104.984 2.784.984 1.344 0 2.304-.72.816-.648 1.104-1.632zm-3.624-7.896q-1.728 0-2.784 1.176-1.008 1.08-1.2 2.952h7.872q-.12-2.136-1.344-3.24-1.008-.888-2.544-.888zM82.133 47.44q0 6.168 3.648 11.76H84.27q-1.776-2.352-2.808-5.256-1.128-3.168-1.128-6.504 0-3.768 1.44-7.296.984-2.448 2.496-4.464h1.512q-3.648 5.592-3.648 11.76zm12.36 6.456q2.4 0 3.672-1.08 1.056-.864 1.056-2.256 0-.984-.408-1.584-.48-.672-1.68-1.2-1.2-.552-3.528-1.128-3.096-.768-4.296-2.04-1.008-1.056-1.008-2.784 0-2.064 1.776-3.264 1.632-1.08 4.296-1.08 2.88 0 4.728 1.344 1.608 1.2 1.968 3.144h-1.944q-.288-1.464-1.656-2.232-1.2-.672-3.072-.672-2.232 0-3.312.864-.888.696-.888 1.8 0 1.344 1.032 2.064 1.008.696 3.696 1.368 3.696.936 5.04 2.28 1.152 1.128 1.152 3.048 0 2.28-1.944 3.696-1.8 1.296-4.656 1.296-2.952 0-4.848-1.512-1.656-1.32-2.016-3.48h1.944q.288 1.728 1.752 2.64 1.248.768 3.144.768zm16.752-16.056l6.984 17.28h-2.088l-1.8-4.632h-8.496l-1.848 4.632h-1.968l7.008-17.28h2.208zm2.472 11.088l-3.6-9.216-3.672 9.216h7.272zm12.384 4.968q2.4 0 3.672-1.08 1.056-.864 1.056-2.256 0-.984-.408-1.584-.48-.672-1.68-1.2-1.2-.552-3.528-1.128-3.096-.768-4.296-2.04-1.008-1.056-1.008-2.784 0-2.064 1.776-3.264 1.632-1.08 4.296-1.08 2.88 0 4.728 1.344 1.608 1.2 1.968 3.144h-1.944q-.288-1.464-1.656-2.232-1.2-.672-3.072-.672-2.232 0-3.312.864-.888.696-.888 1.8 0 1.344 1.032 2.064 1.008.696 3.696 1.368 3.696.936 5.04 2.28 1.152 1.128 1.152 3.048 0 2.28-1.944 3.696-1.8 1.296-4.656 1.296-2.952 0-4.848-1.512-1.656-1.32-2.016-3.48h1.944q.288 1.728 1.752 2.64 1.248.768 3.144.768zm11.568-8.352h7.92v1.584h-7.92v6.384h8.616v1.608h-10.488V37.84h10.488v1.608h-8.616v6.096zm14.472 1.896q0-6.168-3.648-11.76h1.512q1.776 2.352 2.808 5.256 1.128 3.168 1.128 6.504 0 3.768-1.44 7.296-.984 2.448-2.496 4.464h-1.512q3.648-5.592 3.648-11.76zm12.672 7.68V37.84h10.296v1.608h-8.424V46h7.584v1.608h-7.584v7.512h-1.872zm13.896-6.24q0 2.616 1.344 4.008 1.08 1.128 2.784 1.128 1.968 0 3.048-1.488 1.008-1.344 1.008-3.648 0-2.664-1.296-4.032-1.08-1.104-2.784-1.104-1.968 0-3.072 1.464-1.032 1.368-1.032 3.672zm-1.848 0q0-3.408 1.944-5.184 1.584-1.416 4.008-1.416 2.832 0 4.44 1.872 1.488 1.752 1.488 4.728 0 3.384-1.896 5.16-1.56 1.44-4.032 1.44-2.832 0-4.464-1.92-1.488-1.752-1.488-4.68zm16.488-.312v6.552h-1.776V42.64h1.464l.24 2.136q1.008-2.496 3.336-2.496.648 0 1.32.168v1.776q-.768-.216-1.392-.216-1.464 0-2.352 1.296-.84 1.224-.84 3.264zm13.896 6.552V37.84h5.232q4.128 0 6.36 2.448 2.04 2.256 2.04 6.192 0 4.344-2.712 6.672-2.28 1.968-5.808 1.968h-5.112zm5.256-15.744h-3.384v14.16h3.432q3.192 0 4.896-2.04 1.536-1.848 1.536-5.016 0-3.696-2.016-5.568-1.68-1.536-4.464-1.536zm11.208 11.568V42.64h1.776v8.304q0 1.608.888 2.376.744.648 2.04.648 1.68 0 2.616-1.224.792-1.008.792-2.472V42.64h1.8v12.48h-1.488l-.192-1.728q-.624 1.008-1.656 1.548t-2.28.54q-2.088 0-3.24-1.272-1.056-1.2-1.056-3.264zm15.216-3.528v7.704h-1.776V42.64h1.464l.192 1.704q.576-.984 1.56-1.524.984-.54 2.208-.54 2.736 0 3.696 2.232 1.2-2.232 4.056-2.232 2.064 0 3.144 1.272.984 1.128.984 3.096v8.472h-1.8v-8.328q0-3-2.688-3-1.536 0-2.496 1.224-.792 1.008-.792 2.424v7.68h-1.776v-8.328q0-3-2.688-3-1.512 0-2.472 1.176-.816 1.032-.816 2.448zm20.712 0v7.704h-1.776V42.64h1.464l.192 1.704q.576-.984 1.56-1.524.984-.54 2.208-.54 2.736 0 3.696 2.232 1.2-2.232 4.056-2.232 2.064 0 3.144 1.272.984 1.128.984 3.096v8.472h-1.8v-8.328q0-3-2.688-3-1.536 0-2.496 1.224-.792 1.008-.792 2.424v7.68h-1.776v-8.328q0-3-2.688-3-1.512 0-2.472 1.176-.816 1.032-.816 2.448zm20.664-4.776v12.48h-1.8V42.64h1.8zm.12-4.8v2.232h-2.04V37.84h2.04zm12.12 13.776h1.92q-.504 1.872-2.064 2.928-1.392.936-3.336.936-2.88 0-4.512-1.92-1.488-1.752-1.488-4.68 0-3.36 1.872-5.136 1.56-1.464 3.96-1.464 2.808 0 4.32 1.896 1.416 1.824 1.416 5.112h-9.744q.12 2.472 1.464 3.696 1.104.984 2.784.984 1.344 0 2.304-.72.816-.648 1.104-1.632zm-3.624-7.896q-1.728 0-2.784 1.176-1.008 1.08-1.2 2.952h7.872q-.12-2.136-1.344-3.24-1.008-.888-2.544-.888zm16.104 8.064q0-1.032-.816-1.572t-3.048-.972q-2.208-.456-3.192-1.368-.888-.84-.888-2.16 0-1.656 1.344-2.592 1.248-.84 3.36-.84 2.16 0 3.528 1.08 1.2.936 1.464 2.472h-1.824q-.192-1.032-1.128-1.608-.84-.528-2.088-.528-1.488 0-2.232.624-.6.48-.6 1.224 0 .912.684 1.392.684.48 2.508.84 2.616.528 3.672 1.416 1.08.888 1.08 2.472 0 1.776-1.512 2.832-1.344.984-3.528.984-2.4 0-3.816-1.176-1.2-1.008-1.368-2.616h1.824q.36 2.352 3.384 2.352 1.608 0 2.472-.744.72-.624.72-1.512z" fill="#FFF"/></svg>