<svg id="Layer_1" xmlns="http://www.w3.org/2000/svg" viewBox="0 0 182.996 174.223" width="100%" height="100%" preserveAspectRatio="none"><path d="M99.277,64.491a3.3,3.3,0,0,0-1.592-.4,2,2,0,1,0,0,4,3.345,3.345,0,0,0,1.592-.4v2.013a6.038,6.038,0,0,1-1.725.267,3.885,3.885,0,1,1,0-7.766,5.767,5.767,0,0,1,1.725.269Z" fill="#fff" data-color-group="0"/><path d="M79.523,64.491a3.285,3.285,0,0,0-1.59-.4,2,2,0,1,0,0,4,3.32,3.32,0,0,0,1.59-.4v2.013a5.99,5.99,0,0,1-1.726.267,3.885,3.885,0,1,1,0-7.766,5.748,5.748,0,0,1,1.726.269Z" fill="#fff" data-color-group="0"/><path d="M109.193,66.09a3.963,3.963,0,1,1-3.963-3.882,3.85,3.85,0,0,1,3.963,3.882m-3.963-1.972a1.973,1.973,0,1,0,1.958,1.972,1.937,1.937,0,0,0-1.958-1.972" fill="#fff" data-color-group="0"/><path d="M91.194,64.046a6.474,6.474,0,0,0-1.479-.229c-.759,0-1.171.254-1.171.615,0,.456.556.616.867.714l.523.166a2.256,2.256,0,0,1,1.787,2.146c0,1.884-1.656,2.516-3.105,2.516a11.421,11.421,0,0,1-2.042-.2V68.044a7.11,7.11,0,0,0,1.787.278c.942,0,1.375-.275,1.375-.7,0-.38-.375-.6-.844-.747l-.4-.13c-1.055-.333-1.933-.953-1.933-2.194,0-1.4,1.05-2.345,2.794-2.345a8.086,8.086,0,0,1,1.845.239Z" fill="#fff" data-color-group="0"/><path d="M71.8,54.282a.94.94,0,0,0-1.879,0v1.969a.94.94,0,0,0,1.879,0Z" fill="#fff" data-color-group="0"/><path d="M76.958,51.7a.94.94,0,0,0-1.879,0v4.553a.94.94,0,0,0,1.879,0Z" fill="#fff" data-color-group="0"/><path d="M82.118,48.162a.94.94,0,0,0-1.879,0v9.959a.94.94,0,0,0,1.879,0Z" fill="#fff" data-color-group="0"/><path d="M87.279,51.7a.94.94,0,0,0-1.879,0v4.553a.94.94,0,0,0,1.879,0Z" fill="#fff" data-color-group="0"/><path d="M92.435,54.282a.937.937,0,0,0-1.873,0v1.969a.937.937,0,1,0,1.873,0Z" fill="#fff" data-color-group="0"/><path d="M97.6,51.7a.937.937,0,1,0-1.873,0v4.553a.937.937,0,1,0,1.873,0Z" fill="#fff" data-color-group="0"/><path d="M102.762,48.162a.937.937,0,0,0-1.873,0v9.959a.937.937,0,1,0,1.873,0Z" fill="#fff" data-color-group="0"/><path d="M107.926,51.7a.943.943,0,0,0-1.885,0v4.553a.943.943,0,0,0,1.885,0Z" fill="#fff" data-color-group="0"/><path d="M113.078,54.282a.937.937,0,0,0-1.874,0v1.969a.937.937,0,1,0,1.874,0Z" fill="#fff" data-color-group="0"/><rect x="82.124" y="62.341" width="1.893" height="7.5" fill="#fff" data-color-group="0"/><path d="M76.353,93.706h1.331a6.718,6.718,0,0,1-6.991,6.04c-4.613,0-7.728-3.4-7.728-8.775,0-5.873,3.353-9.06,7.728-9.06,3.71,0,6.516,2.093,7.015,5.517H76.377c-.547-2.854-2.711-4.352-5.684-4.352-3.614,0-6.349,2.759-6.349,7.9,0,4.756,2.711,7.61,6.373,7.61A5.322,5.322,0,0,0,76.353,93.706Z" fill="#fff" data-color-group="0"/><path d="M80.322,84.028v-1.76h1.546v1.76Zm.119,15.361V87.024h1.285V99.389Z" fill="#fff" data-color-group="0"/><path d="M88.645,93.4c-2.521-.428-4.019-1.5-4.019-3.448,0-1.855,1.5-3.282,4.494-3.282,2.568,0,4.471,1.332,4.827,3.424H92.616c-.214-1.379-1.593-2.378-3.543-2.378-2.164,0-3.139.976-3.139,2.117,0,1.356.808,2.021,3.448,2.52,3.163.595,4.637,1.57,4.637,3.71,0,1.974-1.807,3.686-4.851,3.686-2.9,0-4.685-1.5-4.97-3.638h1.331c.191,1.569,1.546,2.592,3.663,2.592,2.283,0,3.5-1.237,3.5-2.569C92.687,94.538,91.451,93.9,88.645,93.4Z" fill="#fff" data-color-group="0"/><path d="M106.644,95.751a4.882,4.882,0,0,1-5.112,3.995c-3.068,0-5.493-2.236-5.493-6.444,0-4.376,2.449-6.635,5.517-6.635,2.639,0,4.613,1.475,5.017,3.781h-1.4a3.384,3.384,0,0,0-3.567-2.711c-2.378,0-4.232,1.808-4.232,5.612,0,3.638,1.926,5.3,4.209,5.3a3.568,3.568,0,0,0,3.709-2.9Z" fill="#fff" data-color-group="0"/><path d="M114.348,86.667c3.281,0,5.683,2.212,5.683,6.54,0,4.3-2.4,6.539-5.659,6.539-3.234,0-5.731-2.283-5.731-6.539C108.641,88.855,111.138,86.667,114.348,86.667Zm0,12.033c2.544,0,4.352-1.855,4.352-5.493,0-3.662-1.831-5.494-4.352-5.494s-4.375,1.855-4.375,5.494S111.875,98.7,114.348,98.7Z" fill="#fff" data-color-group="0"/><path d="M47.118,121.027V109.518h1.308V121.1c0,2.807,2.163,4.756,5.207,4.756s5.208-1.973,5.208-4.756v-11.58h1.308v11.509c0,3.353-2.473,5.969-6.516,5.969C49.5,127,47.118,124.356,47.118,121.027Z" fill="#fff" data-color-group="0"/><path d="M63.477,126.639V114.274h1.07l.142,1.926a4.206,4.206,0,0,1,3.805-2.283,3.546,3.546,0,0,1,3.686,2.449,4.381,4.381,0,0,1,4.042-2.449c2.474,0,4,1.522,4,4.233v8.489H78.933v-8.418c0-2.211-1.093-3.21-2.972-3.21-2.045,0-3.472,1.76-3.472,3.971v7.657H71.205v-8.418c0-2.187-1.046-3.21-2.925-3.21a3.683,3.683,0,0,0-3.519,3.947v7.681Z" fill="#fff" data-color-group="0"/><path d="M83.4,126.639V109.518h1.284v7.062a4.73,4.73,0,0,1,4.351-2.663c3.068,0,5.208,2.14,5.208,6.4,0,4.375-2.307,6.682-5.3,6.682a4.584,4.584,0,0,1-4.28-2.616l-.214,2.259Zm5.374-11.628c-2.093,0-4.185,1.5-4.185,5.445,0,3.615,1.736,5.446,4.161,5.446,2.378,0,4.162-1.807,4.162-5.612C92.914,116.652,91.177,115.011,88.776,115.011Z" fill="#fff" data-color-group="0"/><path d="M96.86,126.639V114.274h1.046l.19,2.378a3.585,3.585,0,0,1,3.472-2.735,4.442,4.442,0,0,1,1.284.19v1.261a4.9,4.9,0,0,0-1.355-.214c-1.807,0-3.353,1.759-3.353,4.732v6.753Z" fill="#fff" data-color-group="0"/><path d="M114.693,123.262A5,5,0,0,1,109.557,127c-3.353,0-5.873-2.307-5.873-6.54s2.448-6.539,5.635-6.539c3.163,0,5.588,2.14,5.588,6.849h-9.916c.119,3.519,2.117,5.136,4.59,5.136a3.69,3.69,0,0,0,3.757-2.64Zm-9.678-3.567h8.561c-.167-3.162-1.95-4.732-4.257-4.732C107.06,114.963,105.253,116.6,105.015,119.7Z" fill="#fff" data-color-group="0"/><path d="M118.925,126.639h-1.284V109.518h1.284Z" fill="#fff" data-color-group="0"/><path d="M123.514,126.639H122.23V109.518h1.284Z" fill="#fff" data-color-group="0"/><path d="M126.485,117.484c.191-2.116,2.069-3.567,4.8-3.567,2.758,0,4.589,1.546,4.589,4.066v8.656h-1.046l-.19-2.045a4.859,4.859,0,0,1-4.376,2.4c-2.4,0-4.137-1.308-4.137-3.5,0-2.116,1.284-3.4,4.755-3.971l3.71-.618v-1.07c0-1.784-1.26-2.878-3.376-2.878-1.974,0-3.235,1.023-3.4,2.521Zm8.109,4.756v-2.307l-3.329.571c-2.948.5-3.8,1.427-3.8,2.9,0,1.665,1.284,2.5,3.139,2.5A3.892,3.892,0,0,0,134.594,122.24Z" fill="#fff" data-color-group="0"/></svg>