<svg width="390.258" height="56" viewBox="0 0 390.258 56" xmlns="http://www.w3.org/2000/svg"><path d="M18.821 20.798q2.2 0 3.366-.99.968-.792.968-2.068 0-.902-.374-1.452-.44-.616-1.54-1.1-1.1-.506-3.234-1.034-2.838-.704-3.938-1.87-.924-.968-.924-2.552 0-1.892 1.628-2.992 1.496-.99 3.938-.99 2.64 0 4.334 1.232 1.474 1.1 1.804 2.882h-1.782q-.264-1.342-1.518-2.046-1.1-.616-2.816-.616-2.046 0-3.036.792-.814.638-.814 1.65 0 1.232.946 1.892.924.638 3.388 1.254 3.388.858 4.62 2.09 1.056 1.034 1.056 2.794 0 2.09-1.782 3.388-1.65 1.188-4.268 1.188-2.706 0-4.444-1.386-1.518-1.21-1.848-3.19h1.782q.264 1.584 1.606 2.42 1.144.704 2.882.704zM32.263 10.48v1.408H29.69v7.502q0 1.43 1.364 1.43.638 0 1.342-.176v1.386q-.792.22-1.518.22-1.452 0-2.178-.88-.638-.748-.638-2.024v-7.458H26.39V10.48h1.672l.11-2.75h1.518v2.75h2.574zm3.52 3.08h-1.716q.154-1.65 1.562-2.596 1.232-.814 3.102-.814 2.2 0 3.432 1.188 1.034 1.034 1.034 2.662v7.92h-1.342l-.198-1.738q-1.342 2.068-3.96 2.068-1.892 0-2.97-1.012-.924-.88-.924-2.244 0-1.65 1.144-2.552 1.034-.814 3.212-1.188l3.41-.572v-.792q0-1.21-.88-1.87-.748-.572-2.024-.572-1.364 0-2.134.66-.638.55-.748 1.452zm5.786 4.224V15.98l-2.97.506q-1.826.33-2.53.968-.55.506-.55 1.386 0 1.034.792 1.562.66.462 1.782.462 1.452 0 2.508-.99.968-.88.968-2.09zm11.858-7.304h1.65l-4.026 11.572q-.88 2.508-1.518 3.278-.726.88-1.958.88-.528 0-1.276-.198V24.67q.66.176 1.122.176.66 0 1.045-.528.385-.528 1.023-2.398h-.572l-4.356-11.44h1.76l3.652 10.142 3.454-10.142zm10.054 7.612V10.48h1.628v7.612q0 1.474.814 2.178.682.594 1.87.594 1.54 0 2.398-1.122.726-.924.726-2.266V10.48h1.65v11.44h-1.364l-.176-1.584q-.572.924-1.518 1.419-.946.495-2.09.495-1.914 0-2.97-1.166-.968-1.1-.968-2.992zm12.32 7.788v-15.4h1.342l.242 1.826q.66-1.056 1.716-1.628 1.012-.528 2.266-.528 2.398 0 3.718 1.716 1.21 1.584 1.21 4.224 0 3.124-1.628 4.774-1.364 1.386-3.454 1.386-1.232 0-2.222-.539T77.43 20.16v5.72h-1.628zm8.778-9.834q0-2.376-1.144-3.564-.924-.946-2.442-.946-1.672 0-2.684 1.254-.99 1.21-.99 3.344 0 2.398 1.166 3.674.946 1.056 2.486 1.056 1.76 0 2.706-1.342.902-1.254.902-3.476zM98.703 6.08v15.84h-1.342l-.286-1.892q-.638 1.1-1.672 1.672-.99.55-2.244.55-2.332 0-3.696-1.716-1.254-1.606-1.254-4.246 0-3.168 1.628-4.818 1.32-1.32 3.41-1.32 2.574 0 3.806 2.068V6.08h1.65zm-8.8 10.23q0 2.354 1.166 3.564.946.99 2.42.99 1.738 0 2.75-1.342.924-1.232.924-3.256 0-2.42-1.144-3.674-.968-1.056-2.508-1.056-1.76 0-2.706 1.32-.902 1.254-.902 3.454zm13.354-2.75h-1.716q.154-1.65 1.562-2.596 1.232-.814 3.102-.814 2.2 0 3.432 1.188 1.034 1.034 1.034 2.662v7.92h-1.342l-.198-1.738q-1.342 2.068-3.96 2.068-1.892 0-2.97-1.012-.924-.88-.924-2.244 0-1.65 1.144-2.552 1.034-.814 3.212-1.188l3.41-.572v-.792q0-1.21-.88-1.87-.748-.572-2.024-.572-1.364 0-2.134.66-.638.55-.748 1.452zm5.786 4.224V15.98l-2.97.506q-1.826.33-2.53.968-.55.506-.55 1.386 0 1.034.792 1.562.66.462 1.782.462 1.452 0 2.508-.99.968-.88.968-2.09zm9.416-7.304v1.408h-2.574v7.502q0 1.43 1.364 1.43.638 0 1.342-.176v1.386q-.792.22-1.518.22-1.452 0-2.178-.88-.638-.748-.638-2.024v-7.458h-1.672V10.48h1.672l.11-2.75h1.518v2.75h2.574zm10.12 8.228h1.76q-.462 1.716-1.892 2.684-1.276.858-3.058.858-2.64 0-4.136-1.76-1.364-1.606-1.364-4.29 0-3.08 1.716-4.708 1.43-1.342 3.63-1.342 2.574 0 3.96 1.738 1.298 1.672 1.298 4.686h-8.932q.11 2.266 1.342 3.388 1.012.902 2.552.902 1.232 0 2.112-.66.748-.594 1.012-1.496zm-3.322-7.238q-1.584 0-2.552 1.078-.924.99-1.1 2.706h7.216q-.11-1.958-1.232-2.97-.924-.814-2.332-.814zm17.776-5.39v15.84h-1.342l-.286-1.892q-.638 1.1-1.672 1.672-.99.55-2.244.55-2.332 0-3.696-1.716-1.254-1.606-1.254-4.246 0-3.168 1.628-4.818 1.32-1.32 3.41-1.32 2.574 0 3.806 2.068V6.08h1.65zm-8.8 10.23q0 2.354 1.166 3.564.946.99 2.42.99 1.738 0 2.75-1.342.924-1.232.924-3.256 0-2.42-1.144-3.674-.968-1.056-2.508-1.056-1.76 0-2.706 1.32-.902 1.254-.902 3.454zm19.668-.11q0 2.398 1.232 3.674.99 1.034 2.552 1.034 1.804 0 2.794-1.364.924-1.232.924-3.344 0-2.442-1.188-3.696-.99-1.012-2.552-1.012-1.804 0-2.816 1.342-.946 1.254-.946 3.366zm-1.694 0q0-3.124 1.782-4.752 1.452-1.298 3.674-1.298 2.596 0 4.07 1.716 1.364 1.606 1.364 4.334 0 3.102-1.738 4.73-1.43 1.32-3.696 1.32-2.596 0-4.092-1.76-1.364-1.606-1.364-4.29zm15.114-1.364v7.084h-1.628V10.48h1.342l.198 1.716q.572-.968 1.53-1.507.956-.539 2.1-.539 1.98 0 3.058 1.232.946 1.078.946 2.904v7.634h-1.628v-7.59q0-1.452-.814-2.178-.704-.616-1.936-.616-1.386 0-2.31.99-.858.924-.858 2.31zm21.956-4.356v1.408h-2.574v7.502q0 1.43 1.364 1.43.638 0 1.342-.176v1.386q-.792.22-1.518.22-1.452 0-2.178-.88-.638-.748-.638-2.024v-7.458h-1.672V10.48h1.672l.11-2.75h1.518v2.75h2.574zm3.828 4.422v7.018h-1.628V6.08h1.628v6.006q.572-.924 1.507-1.43.935-.506 2.035-.506 1.98 0 3.058 1.232.946 1.078.946 2.904v7.634h-1.628v-7.59q0-1.452-.814-2.178-.704-.616-1.936-.616-1.386 0-2.31 1.012-.858.946-.858 2.354zm18.722 3.806h1.76q-.462 1.716-1.892 2.684-1.276.858-3.058.858-2.64 0-4.136-1.76-1.364-1.606-1.364-4.29 0-3.08 1.716-4.708 1.43-1.342 3.63-1.342 2.574 0 3.96 1.738 1.298 1.672 1.298 4.686h-8.932q.11 2.266 1.342 3.388 1.012.902 2.552.902 1.232 0 2.112-.66.748-.594 1.012-1.496zm-3.322-7.238q-1.584 0-2.552 1.078-.924.99-1.1 2.706h7.216q-.11-1.958-1.232-2.97-.924-.814-2.332-.814zm22.22 6.93h1.76q-.264 1.804-1.716 2.882-1.32.968-3.146.968-2.464 0-3.916-1.738-1.32-1.584-1.32-4.224 0-3.08 1.672-4.752 1.386-1.386 3.564-1.386 2.046 0 3.366 1.1 1.166.968 1.43 2.508h-1.804q-.22-1.122-1.1-1.716-.77-.506-1.848-.506-1.716 0-2.662 1.342-.902 1.254-.902 3.476 0 2.354 1.188 3.564.924.946 2.376.946 1.298 0 2.134-.748.748-.66.924-1.716zm5.39-2.2q0 2.398 1.232 3.674.99 1.034 2.552 1.034 1.804 0 2.794-1.364.924-1.232.924-3.344 0-2.442-1.188-3.696-.99-1.012-2.552-1.012-1.804 0-2.816 1.342-.946 1.254-.946 3.366zm-1.694 0q0-3.124 1.782-4.752 1.452-1.298 3.674-1.298 2.596 0 4.07 1.716 1.364 1.606 1.364 4.334 0 3.102-1.738 4.73-1.43 1.32-3.696 1.32-2.596 0-4.092-1.76-1.364-1.606-1.364-4.29zm15.114-1.364v7.084h-1.628V10.48h1.342l.198 1.716q.572-.968 1.53-1.507.956-.539 2.1-.539 1.98 0 3.058 1.232.946 1.078.946 2.904v7.634h-1.628v-7.59q0-1.452-.814-2.178-.704-.616-1.936-.616-1.386 0-2.31.99-.858.924-.858 2.31zm14.652 5.742l3.52-10.098h1.716l-4.18 11.44h-2.2l-4.136-11.44h1.782l3.498 10.098zm14.74-1.87h1.76q-.462 1.716-1.892 2.684-1.276.858-3.058.858-2.64 0-4.136-1.76-1.364-1.606-1.364-4.29 0-3.08 1.716-4.708 1.43-1.342 3.63-1.342 2.574 0 3.96 1.738 1.298 1.672 1.298 4.686h-8.932q.11 2.266 1.342 3.388 1.012.902 2.552.902 1.232 0 2.112-.66.748-.594 1.012-1.496zm-3.322-7.238q-1.584 0-2.552 1.078-.924.99-1.1 2.706h7.216q-.11-1.958-1.232-2.97-.924-.814-2.332-.814zm9.57 4.444v6.006h-1.628V10.48h1.342l.22 1.958q.924-2.288 3.058-2.288.594 0 1.21.154v1.628q-.704-.198-1.276-.198-1.342 0-2.156 1.188-.77 1.122-.77 2.992zm5.874 6.93h1.738q.22 1.056 1.144 1.606.792.462 2.024.462 1.738 0 2.662-.968.77-.858.77-2.244v-2.002q-1.254 1.848-3.894 1.848-2.222 0-3.63-1.65-1.32-1.518-1.32-3.96 0-2.882 1.606-4.444 1.342-1.342 3.432-1.342 2.618 0 3.85 2.09l.264-1.76h1.342v11.286q0 2.09-1.496 3.322-1.364 1.122-3.542 1.122-2.244 0-3.564-1.012-1.1-.88-1.386-2.354zm1.188-6.886q0 2.09 1.188 3.256.968.946 2.42.946 1.76 0 2.728-1.166.924-1.1.924-3.036 0-2.288-1.166-3.454-.968-.968-2.508-.968-1.716 0-2.684 1.232-.902 1.166-.902 3.19zm20.064 2.75h1.76q-.462 1.716-1.892 2.684-1.276.858-3.058.858-2.64 0-4.136-1.76-1.364-1.606-1.364-4.29 0-3.08 1.716-4.708 1.43-1.342 3.63-1.342 2.574 0 3.96 1.738 1.298 1.672 1.298 4.686h-8.932q.11 2.266 1.342 3.388 1.012.902 2.552.902 1.232 0 2.112-.66.748-.594 1.012-1.496zm-3.322-7.238q-1.584 0-2.552 1.078-.924.99-1.1 2.706h7.216q-.11-1.958-1.232-2.97-.924-.814-2.332-.814zm9.57 3.366v7.084h-1.628V10.48h1.342l.198 1.716q.572-.968 1.53-1.507.956-.539 2.1-.539 1.98 0 3.058 1.232.946 1.078.946 2.904v7.634h-1.628v-7.59q0-1.452-.814-2.178-.704-.616-1.936-.616-1.386 0-2.31.99-.858.924-.858 2.31zm18.37 3.564h1.76q-.264 1.804-1.716 2.882-1.32.968-3.146.968-2.464 0-3.916-1.738-1.32-1.584-1.32-4.224 0-3.08 1.672-4.752 1.386-1.386 3.564-1.386 2.046 0 3.366 1.1 1.166.968 1.43 2.508h-1.804q-.22-1.122-1.1-1.716-.77-.506-1.848-.506-1.716 0-2.662 1.342-.902 1.254-.902 3.476 0 2.354 1.188 3.564.924.946 2.376.946 1.298 0 2.134-.748.748-.66.924-1.716zm12.386.308h1.76q-.462 1.716-1.892 2.684-1.276.858-3.058.858-2.64 0-4.136-1.76-1.364-1.606-1.364-4.29 0-3.08 1.716-4.708 1.43-1.342 3.63-1.342 2.574 0 3.96 1.738 1.298 1.672 1.298 4.686h-8.932q.11 2.266 1.342 3.388 1.012.902 2.552.902 1.232 0 2.112-.66.748-.594 1.012-1.496zm-3.322-7.238q-1.584 0-2.552 1.078-.924.99-1.1 2.706h7.216q-.11-1.958-1.232-2.97-.924-.814-2.332-.814zm15.576 4.73q0 2.398 1.232 3.674.99 1.034 2.552 1.034 1.804 0 2.794-1.364.924-1.232.924-3.344 0-2.442-1.188-3.696-.99-1.012-2.552-1.012-1.804 0-2.816 1.342-.946 1.254-.946 3.366zm-1.694 0q0-3.124 1.782-4.752 1.452-1.298 3.674-1.298 2.596 0 4.07 1.716 1.364 1.606 1.364 4.334 0 3.102-1.738 4.73-1.43 1.32-3.696 1.32-2.596 0-4.092-1.76-1.364-1.606-1.364-4.29zm18.81-10.186v1.408q-.946-.264-1.716-.264-.66 0-1.023.374-.363.374-.363 1.078v1.87h2.574v1.408h-2.574V21.92h-1.628V11.888h-1.694V10.48h1.694V8.698q0-1.452.924-2.266.77-.682 2.002-.682.814 0 1.804.264zM83.842 47.462q0-.946-.748-1.441-.748-.495-2.794-.891-2.024-.418-2.926-1.254-.814-.77-.814-1.98 0-1.518 1.232-2.376 1.144-.77 3.08-.77 1.98 0 3.234.99 1.1.858 1.342 2.266h-1.672q-.176-.946-1.034-1.474-.77-.484-1.914-.484-1.364 0-2.046.572-.55.44-.55 1.122 0 .836.627 1.276.627.44 2.3.77 2.397.484 3.365 1.298.99.814.99 2.266 0 1.628-1.386 2.596-1.232.902-3.234.902-2.2 0-3.498-1.078-1.1-.924-1.254-2.398h1.672q.33 2.156 3.102 2.156 1.474 0 2.266-.682.66-.572.66-1.386zm12.298-.154h1.76q-.462 1.716-1.892 2.684-1.276.858-3.058.858-2.64 0-4.136-1.76-1.364-1.606-1.364-4.29 0-3.08 1.716-4.708 1.43-1.342 3.63-1.342 2.574 0 3.96 1.738 1.298 1.672 1.298 4.686h-8.932q.11 2.266 1.342 3.388 1.012.902 2.552.902 1.232 0 2.112-.66.748-.594 1.012-1.496zm-3.322-7.238q-1.584 0-2.552 1.078-.924.99-1.1 2.706h7.216q-.11-1.958-1.232-2.97-.924-.814-2.332-.814zm15.62 6.93h1.76q-.264 1.804-1.716 2.882-1.32.968-3.146.968-2.464 0-3.916-1.738-1.32-1.584-1.32-4.224 0-3.08 1.672-4.752 1.386-1.386 3.564-1.386 2.046 0 3.366 1.1 1.166.968 1.43 2.508h-1.804q-.22-1.122-1.1-1.716-.77-.506-1.848-.506-1.716 0-2.662 1.342-.902 1.254-.902 3.476 0 2.354 1.188 3.564.924.946 2.376.946 1.298 0 2.134-.748.748-.66.924-1.716zm4.246-.308V39.08h1.628v7.612q0 1.474.814 2.178.682.594 1.87.594 1.54 0 2.398-1.122.726-.924.726-2.266V39.08h1.65v11.44h-1.364l-.176-1.584q-.572.924-1.518 1.419-.946.495-2.09.495-1.914 0-2.97-1.166-.968-1.1-.968-2.992zm13.948-2.178v6.006h-1.628V39.08h1.342l.22 1.958q.924-2.288 3.058-2.288.594 0 1.21.154v1.628q-.704-.198-1.276-.198-1.342 0-2.156 1.188-.77 1.122-.77 2.992zm7.612-5.434v11.44h-1.65V39.08h1.65zm.11-4.4v2.046h-1.87V34.68h1.87zm7.744 4.4v1.408h-2.574v7.502q0 1.43 1.364 1.43.638 0 1.342-.176v1.386q-.792.22-1.518.22-1.452 0-2.178-.88-.638-.748-.638-2.024v-7.458h-1.672V39.08h1.672l.11-2.75h1.518v2.75h2.574zm9.746 0h1.65l-4.026 11.572q-.88 2.508-1.518 3.278-.726.88-1.958.88-.528 0-1.276-.198V53.27q.66.176 1.122.176.66 0 1.045-.528.385-.528 1.023-2.398h-.572l-4.356-11.44h1.76l3.652 10.142 3.454-10.142zm11.484 3.08h-1.716q.154-1.65 1.562-2.596 1.232-.814 3.102-.814 2.2 0 3.432 1.188 1.034 1.034 1.034 2.662v7.92H169.4l-.198-1.738q-1.342 2.068-3.96 2.068-1.892 0-2.97-1.012-.924-.88-.924-2.244 0-1.65 1.144-2.552 1.034-.814 3.212-1.188l3.41-.572v-.792q0-1.21-.88-1.87-.748-.572-2.024-.572-1.364 0-2.134.66-.638.55-.748 1.452zm5.786 4.224V44.58l-2.97.506q-1.826.33-2.53.968-.55.506-.55 1.386 0 1.034.792 1.562.66.462 1.782.462 1.452 0 2.508-.99.968-.88.968-2.09zm6.38-2.948v7.084h-1.628V39.08h1.342l.198 1.716q.572-.968 1.53-1.507.956-.539 2.1-.539 1.98 0 3.058 1.232.946 1.078.946 2.904v7.634h-1.628v-7.59q0-1.452-.814-2.178-.704-.616-1.936-.616-1.386 0-2.31.99-.858.924-.858 2.31zm20.526-8.756v15.84h-1.342l-.286-1.892q-.638 1.1-1.672 1.672-.99.55-2.244.55-2.332 0-3.696-1.716-1.254-1.606-1.254-4.246 0-3.168 1.628-4.818 1.32-1.32 3.41-1.32 2.574 0 3.806 2.068V34.68h1.65zm-8.8 10.23q0 2.354 1.166 3.564.946.99 2.42.99 1.738 0 2.75-1.342.924-1.232.924-3.256 0-2.42-1.144-3.674-.968-1.056-2.508-1.056-1.76 0-2.706 1.32-.902 1.254-.902 3.454zm20.262-1.474v7.084h-1.628V39.08h1.342l.198 1.716q.572-.968 1.53-1.507.956-.539 2.1-.539 1.98 0 3.058 1.232.946 1.078.946 2.904v7.634H213.4v-7.59q0-1.452-.814-2.178-.704-.616-1.936-.616-1.386 0-2.31.99-.858.924-.858 2.31zm18.722 3.872h1.76q-.462 1.716-1.892 2.684-1.276.858-3.058.858-2.64 0-4.136-1.76-1.364-1.606-1.364-4.29 0-3.08 1.716-4.708 1.43-1.342 3.63-1.342 2.574 0 3.96 1.738 1.298 1.672 1.298 4.686h-8.932q.11 2.266 1.342 3.388 1.012.902 2.552.902 1.232 0 2.112-.66.748-.594 1.012-1.496zm-3.322-7.238q-1.584 0-2.552 1.078-.924.99-1.1 2.706h7.216q-.11-1.958-1.232-2.97-.924-.814-2.332-.814zm12.606-.99v1.408h-2.574v7.502q0 1.43 1.364 1.43.638 0 1.342-.176v1.386q-.792.22-1.518.22-1.452 0-2.178-.88-.638-.748-.638-2.024v-7.458h-1.672V39.08h1.672l.11-2.75h1.518v2.75h2.574zm13.244 9.68l2.64-9.68h1.65L249.7 50.52h-1.936l-2.992-9.658-2.904 9.658h-1.98l-3.41-11.44h1.694l2.75 9.724 2.882-9.724h2.002l2.926 9.68zm7.084-3.96q0 2.398 1.232 3.674.99 1.034 2.552 1.034 1.804 0 2.794-1.364.924-1.232.924-3.344 0-2.442-1.188-3.696-.99-1.012-2.552-1.012-1.804 0-2.816 1.342-.946 1.254-.946 3.366zm-1.694 0q0-3.124 1.782-4.752 1.452-1.298 3.674-1.298 2.596 0 4.07 1.716 1.364 1.606 1.364 4.334 0 3.102-1.738 4.73-1.43 1.32-3.696 1.32-2.596 0-4.092-1.76-1.364-1.606-1.364-4.29zm15.114-.286v6.006h-1.628V39.08h1.342l.22 1.958q.924-2.288 3.058-2.288.594 0 1.21.154v1.628q-.704-.198-1.276-.198-1.342 0-2.156 1.188-.77 1.122-.77 2.992zm7.656.11v5.896h-1.628V34.68h1.628v8.954l4.994-4.554h2.178l-5.522 4.972 6.204 6.468h-2.2l-5.654-5.896zm11.022-5.544v11.44h-1.65V39.08h1.65zm.11-4.4v2.046h-1.87V34.68h1.87zm4.708 8.756v7.084h-1.628V39.08h1.342l.198 1.716q.572-.968 1.53-1.507.956-.539 2.1-.539 1.98 0 3.058 1.232.946 1.078.946 2.904v7.634h-1.628v-7.59q0-1.452-.814-2.178-.704-.616-1.936-.616-1.386 0-2.31.99-.858.924-.858 2.31zm10.538 8.008h1.738q.22 1.056 1.144 1.606.792.462 2.024.462 1.738 0 2.662-.968.77-.858.77-2.244v-2.002q-1.254 1.848-3.894 1.848-2.222 0-3.63-1.65-1.32-1.518-1.32-3.96 0-2.882 1.606-4.444 1.342-1.342 3.432-1.342 2.618 0 3.85 2.09l.264-1.76h1.342v11.286q0 2.09-1.496 3.322-1.364 1.122-3.542 1.122-2.244 0-3.564-1.012-1.1-.88-1.386-2.354zm1.188-6.886q0 2.09 1.188 3.256.968.946 2.42.946 1.76 0 2.728-1.166.924-1.1.924-3.036 0-2.288-1.166-3.454-.968-.968-2.508-.968-1.716 0-2.684 1.232-.902 1.166-.902 3.19z" fill="#FFF"/></svg>